<?xml version="1.0" encoding="UTF-8" standalone="no"?>
<svg xmlns="http://www.w3.org/2000/svg" width="800" height="400" version="1.0" viewBox="0 0 2000 1000">
<rect width="2000" height="1000" fill="#9d1939"/>
<rect width="1333" height="1000" fill="#eebd31"/>
<rect width="667" height="1000" fill="#11335d"/>
<path style="fill:#eebd31;stroke:#eebd31;stroke-width:9" d="m 428,280 c 0,7 -49,13 -110,13 -61,0 -110,-6 -110,-13 0,-7 49,-13 110,-13 61,0 110,6 110,13"/>
<path style="fill:#eebd31;stroke:#eebd31;stroke-width:9" d="m 318,243 c -17,0 -35,0 -51,1 -15,1 -46,4 -67,10 -16,-66 -39,-128 -58,-153 15,1 39,10 37,35 14,-21 43,-10 46,10 -32,-5 -38,23 -28,40 8,15 34,32 65,27 30,-4 48,-29 50,-46 2,-19 -13,-44 -42,-29 -3,-18 14,-39 39,-23 -14,-25 9,-45 9,-45 0,0 24,20 9,45 24,-15 43,4 39,23 -28,-15 -45,9 -42,29 2,17 19,41 50,46 30,4 56,-12 65,-27 9,-17 4,-45 -28,-40 2,-20 31,-31 46,-10 -1,-24 22,-33 37,-35 -18,24 -41,87 -58,153 -20,-5 -51,-9 -67,-10 -15,-1 -33,-1 -51,-1"/>
</svg>